<?xml version="1.0" encoding="UTF-8"?>
<svg id="Capa_2" data-name="Capa 2" xmlns="http://www.w3.org/2000/svg" viewBox="0 0 357.63 634.67">
  <g id="Capa_1-2" data-name="Capa 1">
    <path d="m169.65,280.96c0,83.41,0,166.82.02,250.22,0,.98-.59,2.45.51,2.86,1.21.45,1.88-1.04,2.65-1.81,21.97-22.01,43.94-44.02,65.87-66.08,2.92-2.94,6.11-5.36,10.1-6.58,9.51-2.91,18.17.27,24.22,8.87,4.97,7.07,4.76,16.99-.73,24.35-2.05,2.75-4.39,5.32-6.81,7.75-33.28,33.43-66.58,66.84-99.91,100.22-4.57,4.57-9.59,8.32-16.53,8.44-6.92.11-12.48-2.59-17.27-7.41-34.01-34.17-68.04-68.33-102.09-102.47-3.56-3.57-7-7.15-8.65-12.09-3.17-9.46.55-20.21,8.93-25.51,8.4-5.32,19.14-4.09,26.4,3.17,22.13,22.14,44.23,44.33,66.34,66.49.59.59,1.18,1.19,1.79,1.75.45.42.94.95,1.62.63.67-.32.59-1.05.6-1.66.02-1.67.01-3.34.01-5.02,0-164.41.02-328.83-.02-493.24,0-6.6,1.21-12.65,5.64-17.77,5.71-6.6,14.9-8.88,23.35-5.76,8.34,3.07,13.86,10.92,13.9,20.42.11,22.37.06,44.74.06,67.1,0,61.04,0,122.08.01,183.12Z"/>
  </g>
</svg>